<svg version="1.1" id="Layer_1" xmlns="http://www.w3.org/2000/svg" xmlns:xlink="http://www.w3.org/1999/xlink" x="0px" y="0px"
	 width="100%" viewBox="0 0 1024 1024" enable-background="new 0 0 1024 1024" xml:space="preserve">
<path fill="#1f7f82" opacity="1.000000" stroke="none" 
	d="
M749.916992,864.355286 
	C592.431335,864.362915 435.432983,864.643066 278.436890,864.173706 
	C239.041138,864.055908 209.629639,844.817688 190.229675,810.781921 
	C180.685852,794.038147 176.695953,775.824402 176.443405,756.303894 
	C175.846573,710.171875 175.452759,664.041016 175.789581,617.911804 
	C175.974670,592.563232 180.627625,567.945007 192.045670,545.016296 
	C204.776047,519.452393 224.335632,499.989044 247.646469,484.079468 
	C257.569763,477.306793 268.250366,471.825317 279.396118,467.276581 
	C281.178955,466.548920 283.282501,466.157532 284.814362,463.384155 
	C247.749878,432.740875 235.516052,393.070465 245.998962,346.593353 
	C252.091446,319.581635 266.362579,296.903381 289.136414,280.692047 
	C335.679413,247.560822 401.490417,249.931274 443.746826,296.466949 
	C467.252045,322.352478 476.674103,353.285797 472.947662,387.770233 
	C469.196503,422.483978 450.852600,449.160248 422.837433,470.789337 
	C431.482025,475.048004 439.182465,478.873810 446.915344,482.632904 
	C449.501801,483.890259 450.511780,481.535797 451.716675,480.145813 
	C462.624939,467.561768 473.490265,454.961060 485.279572,443.155579 
	C503.507263,424.902832 523.855591,409.935120 548.088684,400.617706 
	C549.141846,400.212799 550.107666,399.580811 551.238098,398.989838 
	C485.491730,352.457825 479.757141,260.492188 530.762756,204.140472 
	C581.808899,147.743973 668.823059,145.637085 722.507507,200.433151 
	C773.790955,252.778473 773.735901,344.478302 710.836365,394.119598 
	C712.508972,395.995758 714.901062,396.213318 716.989075,396.944000 
	C742.807556,405.979034 766.851379,418.115448 788.020081,435.787506 
	C812.388611,456.130859 828.819458,481.645264 839.039551,511.417114 
	C848.963928,540.327942 851.128540,570.097046 849.596008,600.452759 
	C848.740540,617.398682 849.288513,634.423279 849.642639,651.420166 
	C850.066040,671.740845 850.069153,692.084290 849.630066,712.404358 
	C849.298767,727.736328 849.357239,743.061035 849.390564,758.386047 
	C849.486389,802.481384 820.519714,844.771057 777.753967,859.185730 
	C768.900330,862.169922 759.789673,864.049744 749.916992,864.355286 
M731.494995,825.640991 
	C737.799988,825.497192 744.076111,825.451904 750.398254,824.843628 
	C771.002319,822.861267 786.965637,813.239685 798.589539,796.441895 
	C808.393799,782.273682 811.377136,766.311951 811.214355,749.164734 
	C810.776306,703.012390 811.166260,656.852722 810.977661,610.697021 
	C810.902222,592.231079 812.114746,573.719543 809.670959,555.305176 
	C807.248657,537.052734 802.729492,519.383301 794.045898,503.046448 
	C778.685730,474.148804 754.384888,454.908539 725.212646,441.660828 
	C685.801758,423.763580 644.245605,419.675568 601.743408,425.663452 
	C576.203125,429.261719 552.445068,438.364105 531.623596,453.968384 
	C514.985413,466.437592 501.612335,482.243896 488.074432,497.857056 
	C471.177887,517.343689 455.087158,537.581665 435.216034,554.303528 
	C416.295776,570.225098 395.754089,583.107971 371.716309,589.950012 
	C349.186890,596.362610 326.351715,601.285950 303.223938,604.904114 
	C291.057800,606.807373 284.231689,614.404175 280.936707,625.728699 
	C276.076111,642.434204 283.789825,660.777710 305.588654,661.800537 
	C323.517700,662.641663 341.047974,660.216492 358.559479,657.207764 
	C382.455994,653.102051 405.252808,645.383728 427.428375,635.687073 
	C457.186615,622.674744 485.272400,606.965759 509.812561,585.398499 
	C517.587219,578.565735 524.379822,570.774353 531.750122,563.553711 
	C539.125427,556.328125 551.061157,556.564880 558.311829,563.818298 
	C565.787720,571.296997 566.200806,584.043579 559.224121,591.395264 
	C547.635315,603.606934 535.749084,615.523438 522.278015,625.672302 
	C518.710754,628.359741 517.239807,631.107300 517.250549,635.622681 
	C517.396179,696.608887 517.347046,757.595581 517.350098,818.582153 
	C517.350464,825.634949 517.361633,825.644226 524.542236,825.644287 
	C593.193787,825.644897 661.845337,825.642090 731.494995,825.640991 
M225.933655,564.447083 
	C218.981705,578.512634 215.235123,593.559204 214.642731,609.063843 
	C213.842834,629.999939 214.616882,650.972961 215.085678,671.937134 
	C215.707657,699.750305 215.209061,727.588135 215.249603,755.415222 
	C215.255630,759.556519 215.503952,763.657288 216.144897,767.813293 
	C221.003891,799.319885 245.605759,825.601013 284.269409,825.632507 
	C347.255524,825.683716 410.241760,825.590088 473.227600,825.726868 
	C478.036133,825.737305 479.715942,824.252625 479.706726,819.474487 
	C479.605164,766.819580 479.643921,714.164490 479.616516,661.509399 
	C479.615540,659.590637 480.015045,657.461365 477.599365,655.765686 
	C470.031158,659.411438 462.325378,663.257629 454.510071,666.866516 
	C405.714783,689.398621 354.950226,703.007996 300.683380,700.308716 
	C283.660339,699.461975 268.778534,693.294006 257.647125,680.123657 
	C244.299194,664.330872 239.205933,645.872498 241.582016,625.274963 
	C244.733749,597.953674 259.294830,579.471802 284.899292,570.070923 
	C301.484680,563.981445 319.122894,561.912292 336.410156,558.721497 
	C364.943970,553.454773 390.253876,541.859314 411.843842,522.384949 
	C414.876465,519.649536 418.183990,517.115784 420.283112,513.436584 
	C362.784882,480.806122 272.363647,483.075500 225.933655,564.447083 
M590.544739,208.110413 
	C582.043701,212.061203 574.153198,216.910873 567.107971,223.177994 
	C541.067444,246.342590 530.529663,275.447815 536.860840,309.379028 
	C546.094971,358.867767 594.463867,391.623505 645.028442,382.294647 
	C684.264832,375.055725 716.541870,343.294891 720.416626,298.914978 
	C722.738464,272.321198 714.366699,248.568069 695.875244,228.942505 
	C669.846741,201.317566 629.029053,191.779572 590.544739,208.110413 
M434.671082,369.722412 
	C433.096710,345.789581 422.280823,326.471069 403.266266,312.591980 
	C377.912964,294.086151 350.502289,292.244171 322.479065,306.831848 
	C283.450470,327.148468 267.424683,379.315094 295.431274,417.427612 
	C313.731842,442.331757 338.908051,453.778107 369.440735,449.187744 
	C408.831909,443.265533 436.209137,409.512421 434.671082,369.722412 
z"/>
</svg>