<?xml version="1.0" encoding="UTF-8"?>
<svg width="1200" height="630" viewBox="0 0 1200 630" fill="none" xmlns="http://www.w3.org/2000/svg">
  <!-- Fond avec dégradé -->
  <rect width="1200" height="630" fill="url(#paint0_linear)"/>
  
  <!-- Titre de l'article -->
  <text x="600" y="200" font-family="Arial, sans-serif" font-size="48" font-weight="bold" text-anchor="middle" fill="#0D8496">
    Comment se préparer à un rendez-vous
  </text>
  <text x="600" y="260" font-family="Arial, sans-serif" font-size="36" font-weight="normal" text-anchor="middle" fill="#333333">
    avec une assistante sociale
  </text>

  <!-- Illustration symbolique -->
  <rect x="500" y="320" width="200" height="200" rx="100" fill="#0D8496" opacity="0.1"/>
  <path d="M600 370C583.4 370 570 383.4 570 400C570 416.6 583.4 430 600 430C616.6 430 630 416.6 630 400C630 383.4 616.6 370 600 370Z" fill="#0D8496"/>
  <path d="M550 490C550 462.4 572.4 440 600 440C627.6 440 650 462.4 650 490" stroke="#0D8496" stroke-width="10" stroke-linecap="round"/>
  <rect x="580" y="330" width="40" height="10" fill="#0D8496"/>
  <rect x="580" y="350" width="40" height="10" fill="#0D8496"/>
  
  <!-- Dégradé de fond -->
  <defs>
    <linearGradient id="paint0_linear" x1="0" y1="0" x2="1200" y2="630" gradientUnits="userSpaceOnUse">
      <stop offset="0" stop-color="#F0F7FA"/>
      <stop offset="1" stop-color="#E5EFF3"/>
    </linearGradient>
  </defs>
</svg>
