<svg version="1.2" baseProfile="tiny-ps" xmlns="http://www.w3.org/2000/svg" viewBox="0 0 1535 1810" width="1535" height="1810">
	<title>PYPL-svg</title>
	<style>
		tspan { white-space:pre }
		.shp0 { fill: #aecee7 } 
		.shp1 { fill: #e6f1f7 } 
		.shp2 { fill: #ffffff } 
	</style>
	<path id="Layer" class="shp0" d="M1383.12 459.91L1383.12 459.91L1383.12 459.91C1381.44 470.65 1379.52 481.63 1377.36 492.91C1303.13 873.88 1049.17 1005.49 724.81 1005.49L559.66 1005.49C519.99 1005.49 486.57 1034.28 480.38 1073.39L480.38 1073.39L480.38 1073.39L395.83 1609.43L371.89 1761.37C367.86 1787.05 387.67 1810.2 413.59 1810.2L706.5 1810.2C741.19 1810.2 770.66 1785.01 776.12 1750.82L779 1735.94L834.15 1386.1L837.69 1366.91C843.09 1332.59 872.61 1307.4 907.3 1307.4L951.11 1307.4C1234.9 1307.4 1457.06 1192.23 1521.99 858.94C1549.11 719.71 1535.07 603.46 1463.3 521.7C1441.57 497.05 1414.63 476.59 1383.12 459.91Z" />
	<path id="Layer" class="shp1" d="M1305.47 428.96C1294.13 425.66 1282.43 422.66 1270.42 419.96C1258.36 417.32 1246 414.98 1233.28 412.94C1188.75 405.75 1139.96 402.33 1087.69 402.33L646.49 402.33C635.63 402.33 625.31 404.79 616.07 409.23C595.73 419 580.6 438.26 576.94 461.83L483.09 1056.06L480.38 1073.39C486.57 1034.28 519.99 1005.49 559.66 1005.49L724.81 1005.49C1049.17 1005.49 1303.13 873.82 1377.36 492.91C1379.58 481.63 1381.44 470.65 1383.12 459.91C1364.34 449.96 1344 441.44 1322.09 434.18C1316.69 432.38 1311.11 430.64 1305.47 428.96Z" />
	<path id="Layer" class="shp2" d="M576.94 461.83C580.6 438.26 595.73 419 616.07 409.29C625.37 404.85 635.63 402.39 646.49 402.39L1087.69 402.39C1139.96 402.39 1188.75 405.81 1233.28 413C1246 415.04 1258.36 417.38 1270.42 420.02C1282.43 422.72 1294.13 425.72 1305.47 429.02C1311.11 430.7 1316.69 432.44 1322.15 434.18C1344.06 441.44 1364.4 450.02 1383.18 459.91C1405.27 319.13 1383 223.27 1306.85 136.47C1222.9 40.91 1071.37 0 877.47 0L314.58 0C274.97 0 241.18 28.79 235.06 67.96L0.6 1553.52C-4.02 1582.92 18.66 1609.43 48.31 1609.43L395.83 1609.43L483.09 1056.06L576.94 461.83Z" />
</svg>